<?xml version="1.0" standalone="no"?>
<!DOCTYPE svg PUBLIC "-//W3C//DTD SVG 20010904//EN"
 "http://www.w3.org/TR/2001/REC-SVG-20010904/DTD/svg10.dtd">
<svg version="1.0" xmlns="http://www.w3.org/2000/svg"
 width="64.000000pt" height="64.000000pt" viewBox="0 0 64.000000 64.000000"
 preserveAspectRatio="xMidYMid meet">

<g transform="translate(0.000000,64.000000) scale(0.100000,-0.100000)"
fill="#000000" stroke="none">
<path d="M76 564 c-24 -23 -24 -465 0 -488 23 -24 465 -24 488 0 24 23 24 465
0 488 -23 24 -465 24 -488 0z m484 -244 l0 -240 -240 0 -240 0 0 240 0 240
240 0 240 0 0 -240z"/>
<path d="M164 497 c-3 -8 -4 -34 -2 -58 l3 -44 55 0 c49 0 55 2 58 23 2 14 10
22 23 22 10 0 19 5 19 10 0 6 -9 10 -19 10 -13 0 -21 8 -23 23 -3 19 -10 22
-56 25 -38 2 -54 -1 -58 -11z m96 -47 l0 -40 -40 0 -40 0 0 40 0 40 40 0 40 0
0 -40z"/>
<path d="M364 496 c-3 -8 -4 -31 -2 -52 2 -29 9 -42 26 -49 12 -5 22 -18 22
-27 0 -10 5 -18 10 -18 6 0 10 8 10 18 0 9 10 22 23 27 16 7 23 20 25 48 2 21
-2 45 -9 53 -15 19 -98 19 -105 0z m96 -46 l0 -40 -40 0 -40 0 0 40 0 40 40 0
40 0 0 -40z"/>
<path d="M210 331 c0 -13 -8 -21 -22 -23 -19 -2 -24 -10 -26 -46 -4 -54 10
-72 58 -72 47 0 62 18 58 67 -2 28 -9 41 -25 48 -13 5 -23 18 -23 27 0 10 -4
18 -10 18 -5 0 -10 -9 -10 -19z m50 -81 l0 -40 -40 0 -40 0 0 40 0 40 40 0 40
0 0 -40z"/>
<path d="M372 298 c-7 -7 -12 -18 -12 -25 0 -7 -9 -13 -20 -13 -11 0 -20 -4
-20 -10 0 -5 8 -10 18 -10 9 0 22 -10 27 -22 7 -17 20 -24 48 -26 21 -2 45 2
53 9 17 14 19 80 2 97 -16 16 -80 16 -96 0z m88 -48 l0 -40 -40 0 -40 0 0 40
0 40 40 0 40 0 0 -40z"/>
<path d="M110 130 c0 -5 5 -10 10 -10 6 0 10 5 10 10 0 6 -4 10 -10 10 -5 0
-10 -4 -10 -10z"/>
<path d="M160 130 c0 -5 5 -10 10 -10 6 0 10 5 10 10 0 6 -4 10 -10 10 -5 0
-10 -4 -10 -10z"/>
<path d="M210 130 c0 -5 5 -10 10 -10 6 0 10 5 10 10 0 6 -4 10 -10 10 -5 0
-10 -4 -10 -10z"/>
<path d="M260 130 c0 -5 5 -10 10 -10 6 0 10 5 10 10 0 6 -4 10 -10 10 -5 0
-10 -4 -10 -10z"/>
<path d="M310 130 c0 -5 5 -10 10 -10 6 0 10 5 10 10 0 6 -4 10 -10 10 -5 0
-10 -4 -10 -10z"/>
<path d="M360 130 c0 -5 5 -10 10 -10 6 0 10 5 10 10 0 6 -4 10 -10 10 -5 0
-10 -4 -10 -10z"/>
<path d="M410 130 c0 -5 5 -10 10 -10 6 0 10 5 10 10 0 6 -4 10 -10 10 -5 0
-10 -4 -10 -10z"/>
<path d="M460 130 c0 -5 5 -10 10 -10 6 0 10 5 10 10 0 6 -4 10 -10 10 -5 0
-10 -4 -10 -10z"/>
<path d="M510 130 c0 -5 5 -10 10 -10 6 0 10 5 10 10 0 6 -4 10 -10 10 -5 0
-10 -4 -10 -10z"/>
</g>
</svg>
