<?xml version="1.0" standalone="no"?>
<!DOCTYPE svg PUBLIC "-//W3C//DTD SVG 20010904//EN"
 "http://www.w3.org/TR/2001/REC-SVG-20010904/DTD/svg10.dtd">
<svg version="1.0" xmlns="http://www.w3.org/2000/svg"
 width="96.000000pt" height="96.000000pt" viewBox="0 0 96.000000 96.000000"
 preserveAspectRatio="xMidYMid meet">

<g transform="translate(0.000000,96.000000) scale(0.100000,-0.100000)"
fill="#000000" stroke="none">
<path d="M753 934 c-64 -31 -116 -90 -142 -158 -22 -60 -21 -61 69 -69 52 -5
60 -4 40 5 -14 6 -31 10 -38 9 -8 -1 -20 3 -28 10 -10 8 -14 8 -14 0 0 -6 -7
-11 -15 -11 -13 0 -12 8 4 51 37 95 102 156 181 166 49 7 55 -12 8 -22 -49
-11 -96 -43 -129 -88 -23 -32 -27 -43 -17 -54 10 -13 14 -12 25 3 7 10 11 24
9 30 -5 12 11 31 26 33 24 4 38 15 38 32 0 10 7 19 15 19 8 0 15 -4 15 -9 0
-15 62 3 74 22 16 24 -4 51 -40 55 -16 1 -52 -9 -81 -24z"/>
<path d="M830 788 c0 -13 6 -30 13 -40 12 -15 15 -15 37 3 49 37 86 12 50 -34
-29 -36 -109 -67 -182 -69 -92 -3 -281 13 -296 25 -11 8 -18 5 -31 -12 -12
-15 -29 -24 -51 -25 -19 -1 -36 -8 -39 -17 -10 -25 -35 -56 -51 -61 -10 -3
-15 -20 -16 -52 -1 -26 -7 -58 -14 -71 -11 -20 -11 -27 0 -40 12 -14 11 -18
-1 -26 -8 -5 -24 -9 -37 -9 -98 -1 -252 -175 -200 -227 23 -23 64 -10 72 23
10 40 47 84 88 105 21 11 38 18 39 17 1 -2 3 -22 5 -46 4 -41 3 -42 -21 -36
-34 8 -34 -19 0 -34 17 -8 25 -20 25 -36 0 -25 0 -25 -35 -10 -31 13 -35 13
-35 -1 0 -8 13 -23 28 -33 15 -9 27 -25 26 -35 -1 -12 0 -13 3 -2 2 8 13 15
24 15 20 0 26 24 9 35 -16 10 -12 37 7 50 17 13 17 14 0 32 -21 24 -22 33 -3
33 24 0 29 20 10 41 -9 10 -13 19 -7 19 5 0 18 -9 28 -20 15 -16 17 -32 13
-97 -6 -96 -24 -139 -58 -136 -21 2 -22 1 -8 -7 49 -30 84 64 75 201 l-7 86
63 13 c154 30 246 114 287 262 l16 60 81 3 c132 4 243 69 213 124 -11 22 -44
28 -55 11 -10 -16 -21 -12 -35 15 -17 31 -30 32 -30 3z m-276 -154 c9 -8 16
-19 16 -23 0 -22 -23 -70 -36 -75 -9 -3 -13 -10 -9 -16 8 -13 -25 -62 -39 -57
-6 2 -15 -6 -21 -17 -17 -34 -192 -85 -179 -52 3 8 1 17 -5 21 -13 8 -15 72
-2 79 5 3 14 -1 21 -9 7 -8 16 -15 21 -15 15 0 10 37 -6 50 -21 17 -19 33 6
56 20 18 21 18 50 -16 28 -34 28 -35 29 -10 0 14 -7 35 -15 47 -14 19 -13 22
15 33 28 12 32 10 51 -15 16 -20 24 -23 30 -14 4 7 3 21 -2 31 -8 16 -5 18 25
18 19 0 42 -7 50 -16z m41 -91 c-8 -19 -15 -38 -16 -42 0 -3 -4 3 -8 14 -5 12
-3 31 6 48 20 40 36 23 18 -20z m-44 -81 c-11 -16 -27 -34 -35 -41 -12 -10
-14 -8 -9 11 7 29 32 58 50 58 11 0 10 -7 -6 -28z m-66 -52 c10 -17 -74 -51
-174 -70 -157 -30 -210 -60 -246 -141 -20 -42 -51 -56 -40 -16 17 55 64 111
118 139 22 10 90 30 152 43 62 13 126 30 141 39 34 18 41 19 49 6z"/>
<path d="M750 756 c0 -30 13 -46 36 -46 l25 0 -23 30 c-24 32 -38 38 -38 16z"/>
<path d="M503 723 c15 -2 37 -2 50 0 12 2 0 4 -28 4 -27 0 -38 -2 -22 -4z"/>
<path d="M249 613 c-13 -16 -12 -17 4 -4 9 7 17 15 17 17 0 8 -8 3 -21 -13z"/>
<path d="M193 430 c0 -25 2 -35 4 -22 2 12 2 32 0 45 -2 12 -4 2 -4 -23z"/>
</g>
</svg>
