<?xml version="1.0" standalone="no"?>
<!DOCTYPE svg PUBLIC "-//W3C//DTD SVG 20010904//EN"
 "http://www.w3.org/TR/2001/REC-SVG-20010904/DTD/svg10.dtd">
<svg version="1.0" xmlns="http://www.w3.org/2000/svg"
 width="96.000000pt" height="96.000000pt" viewBox="0 0 96.000000 96.000000"
 preserveAspectRatio="xMidYMid meet">

<g transform="translate(0.000000,96.000000) scale(0.100000,-0.100000)"
fill="#000000" stroke="none">
<path d="M415 893 c-171 -27 -267 -124 -282 -286 -7 -82 5 -121 79 -252 89
-159 98 -178 104 -221 10 -74 13 -81 46 -95 20 -8 71 -14 129 -14 115 0 140
13 137 75 -2 53 6 60 68 60 63 0 94 13 94 38 0 9 8 31 18 47 20 33 27 101 12
110 -18 11 -10 23 19 30 16 3 32 12 34 19 5 13 -25 65 -69 119 -21 24 -23 35
-17 91 5 54 2 72 -16 110 -29 59 -109 130 -169 150 -52 17 -141 27 -187 19z
m220 -58 c95 -55 140 -136 130 -230 -6 -60 -6 -60 40 -119 25 -33 44 -64 42
-70 -2 -6 -14 -13 -28 -15 -33 -4 -41 -21 -23 -49 11 -17 13 -27 4 -37 -7 -9
-8 -15 -1 -20 7 -4 4 -19 -9 -43 -10 -20 -21 -45 -24 -55 -5 -14 -16 -17 -67
-16 -74 2 -92 -12 -93 -72 -1 -52 -23 -69 -92 -69 -68 0 -156 17 -166 33 -4 6
-8 28 -8 48 0 37 -17 75 -128 280 -59 109 -70 162 -52 241 33 141 111 210 254
226 83 10 171 -3 221 -33z"/>
<path d="M319 806 c-36 -19 -71 -41 -77 -49 -7 -8 -22 -57 -34 -110 l-21 -97
28 -52 c32 -61 50 -78 80 -78 17 0 27 11 40 45 23 54 66 75 152 74 67 -2 179
43 207 82 41 59 5 145 -78 188 -40 20 -66 26 -140 28 -87 3 -94 2 -157 -31z
m75 -20 c-6 -25 -7 -25 -20 -9 -18 24 -17 31 4 35 23 6 24 4 16 -26z m130 15
c11 -13 15 -27 11 -40 -7 -24 -37 -28 -55 -6 -10 13 -9 15 9 15 12 0 19 5 16
10 -8 13 -42 13 -50 0 -20 -32 39 -79 74 -60 10 5 21 16 25 25 5 13 9 13 25 3
11 -7 24 -9 28 -4 4 4 1 11 -7 16 -65 37 -65 64 0 35 48 -21 83 -55 57 -55
-11 0 -15 -8 -14 -27 2 -34 -26 -43 -54 -17 -25 23 -37 10 -14 -16 20 -22 67
-27 83 -7 5 6 12 23 14 37 4 25 4 25 13 -4 6 -23 4 -32 -11 -44 -13 -10 -15
-16 -6 -19 27 -10 -2 -23 -39 -17 -42 7 -53 -2 -18 -14 18 -7 17 -9 -15 -25
l-35 -16 11 24 c8 19 8 31 0 50 -13 28 -39 33 -49 10 -7 -20 6 -33 16 -16 12
19 23 -16 12 -38 -13 -24 -48 -39 -111 -46 -83 -9 -93 -10 -116 -2 -18 6 -21
4 -21 -18 0 -15 5 -25 13 -25 17 0 17 0 -2 -38 -16 -33 -28 -40 -39 -22 -3 6
1 13 9 16 26 10 18 27 -8 20 -14 -3 -27 -2 -31 4 -3 5 6 12 20 16 35 9 32 28
-4 21 -31 -6 -51 7 -51 34 0 11 9 19 25 21 14 2 25 8 25 13 -1 6 -10 9 -22 7
-15 -1 -19 2 -14 14 3 8 6 25 6 36 0 20 1 20 18 5 10 -10 26 -17 35 -17 9 0
17 -7 17 -15 0 -22 9 -19 32 10 18 23 26 26 77 23 49 -3 56 -6 59 -25 3 -17
-2 -23 -16 -23 -11 0 -22 4 -24 9 -5 14 -58 25 -58 13 0 -6 9 -14 20 -17 23
-7 27 -25 5 -25 -8 0 -15 -4 -15 -9 0 -19 20 -22 47 -7 16 8 36 17 46 20 26 8
31 33 12 62 -15 24 -21 25 -83 22 -49 -2 -70 1 -78 11 -12 16 -49 7 -39 -9 4
-6 11 -8 16 -5 5 4 9 1 9 -5 0 -6 -10 -10 -22 -8 -16 2 -24 12 -29 38 -8 39
-4 47 40 73 30 17 31 17 53 -5 24 -24 9 -39 -18 -17 -14 12 -16 11 -13 -6 3
-15 13 -20 36 -21 18 -1 39 -7 48 -14 21 -18 33 -3 13 16 -12 12 -14 24 -7 47
5 17 14 34 21 39 24 15 74 8 92 -11z"/>
<path d="M492 688 c5 -15 28 -23 28 -10 0 5 -7 13 -16 16 -10 4 -14 1 -12 -6z"/>
</g>
</svg>
