<?xml version="1.0" standalone="no"?>
<!DOCTYPE svg PUBLIC "-//W3C//DTD SVG 20010904//EN"
 "http://www.w3.org/TR/2001/REC-SVG-20010904/DTD/svg10.dtd">
<svg version="1.0" xmlns="http://www.w3.org/2000/svg"
 width="3126.000000pt" height="2501.000000pt" viewBox="0 0 3126.000000 2501.000000"
 preserveAspectRatio="xMidYMid meet">

<g transform="translate(0.000000,2501.000000) scale(0.100000,-0.100000)"
fill="#000000" stroke="none">
<path d="M7445 23524 c-610 -69 -1179 -306 -1665 -693 -125 -99 -385 -360
-488 -489 -363 -455 -596 -997 -679 -1582 -14 -97 -18 -192 -18 -425 0 -265 3
-318 24 -455 86 -566 312 -1090 661 -1530 103 -131 383 -411 512 -514 219
-175 560 -373 798 -466 47 -18 89 -36 93 -40 6 -5 -228 -1453 -259 -1602 -5
-25 -10 -27 -72 -33 -113 -11 -311 -54 -427 -92 -144 -48 -395 -175 -514 -260
-111 -80 -306 -264 -393 -372 -206 -255 -340 -552 -405 -896 -24 -127 -29
-446 -9 -589 69 -493 309 -925 691 -1244 476 -399 1129 -547 1727 -393 62 16
139 39 171 51 32 12 60 20 61 18 2 -1 189 -560 416 -1241 l412 -1238 -41 -57
c-197 -273 -382 -651 -474 -967 -85 -293 -117 -505 -124 -822 -8 -329 15 -552
83 -832 103 -421 313 -862 563 -1181 l50 -65 -241 -241 -241 -242 -86 53
c-320 195 -652 288 -1026 288 -191 0 -323 -17 -504 -64 -683 -180 -1222 -727
-1396 -1419 -53 -210 -70 -520 -41 -734 137 -976 961 -1696 1941 -1696 534 0
1033 212 1406 597 290 299 472 670 533 1084 20 136 21 410 1 548 -38 264 -136
537 -274 756 l-50 80 242 242 c152 153 245 239 251 234 185 -150 453 -311 699
-421 863 -382 1871 -359 2712 62 316 159 575 347 835 608 199 199 371 416 484
612 l27 47 1108 -554 1108 -554 6 -218 c11 -390 72 -707 204 -1053 164 -430
406 -803 733 -1130 257 -258 512 -442 840 -605 480 -240 968 -347 1509 -332
498 14 887 111 1336 332 431 212 779 492 1088 877 673 837 876 1988 529 3008
-22 63 -54 150 -71 194 -18 43 -30 80 -29 81 2 1 355 237 786 524 l784 522 55
-48 c204 -178 380 -286 612 -377 358 -141 799 -167 1186 -70 558 141 1039 538
1287 1062 500 1058 -39 2321 -1148 2692 -228 76 -412 103 -661 98 l-163 -3 -5
40 c-3 22 -73 924 -155 2004 -155 2027 -153 1980 -113 1981 31 0 274 78 398
127 1012 400 1758 1285 1970 2338 49 240 59 353 60 635 0 286 -8 378 -56 626
-96 499 -326 992 -645 1386 -491 606 -1154 1003 -1915 1147 -268 51 -634 65
-917 36 -642 -67 -1251 -331 -1747 -756 -116 -99 -319 -308 -414 -425 l-73
-92 -932 665 c-512 366 -937 671 -944 678 -12 10 -6 32 32 126 96 242 130 427
130 714 0 287 -33 470 -131 715 -268 680 -882 1148 -1613 1231 -132 15 -413 7
-540 -16 -622 -111 -1150 -508 -1426 -1070 -148 -303 -222 -668 -198 -972 5
-62 7 -113 4 -113 -3 -1 -974 -139 -2157 -309 -1184 -169 -2153 -305 -2153
-302 0 3 -9 56 -19 118 -58 334 -161 641 -314 938 -170 327 -350 568 -618 831
-486 474 -1085 770 -1774 874 -187 29 -608 36 -800 14z m575 -705 c981 -90
1823 -758 2136 -1695 90 -268 126 -491 126 -784 0 -401 -79 -742 -251 -1095
-369 -754 -1071 -1260 -1916 -1381 -164 -23 -475 -23 -650 0 -155 21 -392 79
-530 130 -345 128 -688 353 -941 619 -674 706 -877 1728 -523 2634 233 595
717 1103 1303 1365 391 174 823 246 1246 207z m9451 -19 c507 -104 896 -503
983 -1009 151 -886 -674 -1638 -1541 -1406 -692 185 -1084 915 -857 1593 141
421 516 748 950 826 122 22 346 20 465 -4z m-1922 -2217 c155 -262 426 -536
665 -672 30 -18 58 -37 62 -42 3 -5 -121 -390 -277 -856 l-282 -846 -61 7
c-457 48 -826 22 -1227 -88 -387 -106 -798 -311 -1110 -552 -654 -506 -1100
-1263 -1215 -2060 -8 -60 -17 -123 -20 -141 -3 -19 -12 -34 -22 -37 -58 -16
-2272 -380 -2277 -374 -4 4 -58 273 -120 597 -62 325 -115 594 -117 599 -3 8
-681 -117 -692 -129 -3 -3 44 -264 104 -579 60 -316 111 -584 112 -594 3 -19
-24 -25 -396 -87 l-398 -66 -27 45 c-180 306 -428 558 -718 728 -99 59 -253
130 -343 159 -30 10 -57 19 -58 21 -2 1 54 350 125 774 l128 771 30 -5 c168
-30 517 -31 752 -1 119 15 331 54 403 75 19 5 37 6 41 2 3 -4 28 -122 54 -262
26 -140 49 -256 50 -258 3 -4 688 127 693 133 3 3 -23 152 -58 332 -38 202
-58 329 -52 331 28 9 259 152 346 214 727 520 1195 1291 1324 2183 l17 120
2240 321 c1232 177 2247 322 2256 323 10 1 35 -32 68 -86z m4021 -1108 c528
-377 960 -688 960 -692 0 -3 -24 -69 -54 -147 -95 -246 -154 -478 -193 -756
-13 -93 -17 -192 -17 -390 0 -290 11 -399 64 -653 17 -77 29 -141 28 -142 -3
-2 -1897 -813 -1964 -841 l-30 -13 -53 158 c-286 864 -926 1565 -1763 1931
-85 37 -133 63 -132 72 2 22 535 1622 544 1631 4 4 67 4 141 -2 500 -37 1028
138 1404 468 44 38 86 68 93 66 7 -3 444 -313 972 -690z m4250 480 c525 -80
993 -309 1369 -670 416 -400 674 -915 753 -1505 17 -129 14 -476 -5 -615 -90
-647 -416 -1225 -914 -1620 l-108 -86 -6 528 c-6 571 -5 565 -64 685 -53 108
-152 206 -263 259 -100 48 -172 59 -404 59 l-208 0 0 169 0 169 48 35 c59 44
168 157 211 219 49 72 108 204 133 293 17 65 21 107 21 230 0 123 -4 165 -21
230 -27 99 -89 229 -147 310 -63 89 -199 213 -289 264 -532 302 -1182 37
-1362 -555 -25 -80 -27 -105 -28 -244 -1 -167 12 -234 70 -373 55 -130 180
-289 297 -374 l47 -35 0 -169 0 -169 -207 0 c-305 0 -407 -29 -540 -153 -81
-76 -124 -141 -160 -244 l-28 -78 -3 -522 c-2 -288 -6 -523 -9 -523 -8 0 -135
102 -222 179 -41 36 -113 109 -159 161 -339 378 -547 817 -624 1315 -25 168
-31 511 -9 665 62 450 225 851 493 1208 93 124 285 322 410 423 244 196 499
336 793 434 177 59 329 90 585 119 78 9 451 -4 550 -19z m-8270 -2490 c230
-27 437 -79 639 -160 833 -334 1410 -1067 1548 -1965 22 -145 25 -529 5 -665
-68 -452 -224 -831 -483 -1175 -411 -546 -1040 -906 -1711 -979 -143 -16 -448
-14 -585 4 -542 71 -1046 316 -1434 697 -638 626 -889 1546 -660 2414 58 219
175 487 296 679 261 412 657 756 1094 950 244 108 549 188 791 208 120 10 387
6 500 -8z m5115 -1533 c67 -122 176 -287 281 -422 113 -146 374 -409 526 -529
l117 -93 -344 -688 -344 -687 -93 18 c-327 65 -666 43 -983 -62 -806 -268
-1345 -1012 -1345 -1857 0 -219 29 -403 96 -608 20 -63 35 -117 31 -120 -3 -3
-851 -323 -1884 -710 -1033 -387 -1890 -709 -1904 -716 l-27 -13 125 -332 125
-332 27 10 c14 6 907 341 1984 746 l1958 735 92 -89 c105 -101 189 -165 323
-248 52 -32 94 -63 94 -69 1 -28 -283 -2012 -289 -2017 -3 -4 -33 -3 -66 2
-33 4 -141 11 -240 15 -695 27 -1414 -197 -1984 -618 -288 -213 -572 -510
-768 -803 -152 -227 -291 -509 -374 -760 -23 -71 -46 -134 -49 -138 -4 -5
-466 221 -1027 502 l-1020 510 28 101 c77 275 113 540 113 845 0 267 -21 462
-76 699 -15 67 -17 90 -8 96 6 4 136 54 288 110 152 57 278 104 279 105 3 1
-242 654 -248 660 -3 3 -131 -42 -285 -100 -153 -58 -283 -105 -289 -105 -5 0
-34 44 -64 98 -149 267 -406 598 -598 768 -35 30 -63 60 -63 66 0 6 275 491
611 1079 l610 1068 52 -21 c636 -254 1309 -307 1964 -153 447 106 908 333
1273 628 101 82 336 312 424 417 382 450 638 1008 725 1583 26 169 44 407 39
522 l-3 89 1065 457 c586 251 1068 455 1072 453 3 -2 27 -43 53 -92z m-13865
-971 c236 -53 436 -160 606 -323 412 -396 499 -1024 209 -1518 -154 -263 -399
-459 -690 -553 -149 -48 -181 -52 -380 -52 -198 0 -230 4 -380 52 -399 128
-718 465 -821 871 -79 312 -36 641 121 917 201 351 542 576 955 629 73 9 297
-4 380 -23z m5314 -496 c35 -217 113 -490 200 -700 106 -256 290 -563 472
-790 117 -145 330 -357 477 -474 64 -52 117 -95 117 -97 0 -4 -1153 -2025
-1176 -2061 l-14 -23 -108 54 c-429 215 -855 324 -1339 343 -153 6 -162 7
-167 27 -11 46 -656 3445 -656 3458 0 10 253 56 1058 190 581 97 1071 176
1088 177 l31 1 17 -105z m10213 25 c319 -124 771 -210 1099 -210 l63 0 5 -42
c3 -24 73 -927 156 -2008 82 -1081 153 -1992 156 -2026 l6 -60 -84 -48 c-834
-483 -1193 -1512 -839 -2405 23 -57 40 -105 39 -106 -2 -1 -344 -230 -762
-508 l-758 -505 -81 101 c-106 132 -333 360 -467 469 -252 205 -573 393 -858
503 -68 27 -73 31 -69 54 3 14 67 461 143 993 l137 968 141 -6 c688 -32 1340
305 1723 887 559 851 364 1991 -449 2622 l-77 59 327 654 c180 360 331 654
337 654 5 0 56 -18 112 -40z m-12782 -2143 c180 -945 325 -1720 323 -1722 -1
-1 -65 -21 -141 -44 -352 -105 -682 -268 -967 -477 -63 -46 -117 -80 -121 -76
-4 4 -177 518 -385 1143 l-378 1137 87 93 c260 275 424 591 504 966 25 119 27
146 28 369 l0 242 355 59 c313 52 356 57 362 44 4 -9 154 -789 333 -1734z
m11180 469 c176 -44 312 -108 449 -210 253 -187 426 -466 487 -786 21 -105 16
-348 -8 -460 -111 -511 -508 -889 -1023 -975 -252 -43 -555 9 -779 131 -334
182 -572 511 -636 878 -19 114 -19 318 0 432 89 510 501 918 1019 1009 127 22
364 13 491 -19z m-9727 -2836 c418 -61 806 -224 1152 -484 123 -92 321 -284
423 -411 305 -379 478 -786 543 -1275 23 -177 15 -535 -16 -709 -131 -739
-565 -1366 -1207 -1742 -359 -209 -744 -320 -1168 -335 -706 -26 -1368 242
-1870 757 -369 379 -596 834 -682 1371 -28 174 -25 576 5 753 94 546 342 1022
728 1395 248 240 562 438 879 556 196 72 468 129 710 148 100 8 378 -5 503
-24z m13815 -340 c59 -6 136 -17 170 -25 356 -83 664 -321 830 -642 289 -559
111 -1250 -411 -1597 -444 -296 -1006 -282 -1431 34 -243 181 -411 446 -478
752 -25 116 -25 370 1 488 103 482 475 860 950 965 66 15 114 21 246 34 8 0
64 -4 123 -9z m-5587 -2519 c532 -91 989 -325 1364 -701 370 -370 603 -817
697 -1340 24 -131 27 -170 27 -405 1 -284 -9 -379 -64 -603 -228 -932 -980
-1653 -1923 -1846 -189 -39 -324 -49 -565 -43 -242 6 -376 24 -587 82 -591
162 -1120 557 -1449 1080 -170 270 -289 582 -346 906 -31 175 -39 521 -16 707
35 289 108 534 236 797 195 399 490 735 867 985 327 217 688 348 1108 400 125
16 515 4 651 -19z m-12536 -2471 c530 -65 964 -465 1070 -985 27 -131 33 -247
20 -364 -62 -564 -467 -1004 -1019 -1106 -108 -20 -324 -20 -432 0 -682 126
-1135 784 -1002 1455 126 638 725 1078 1363 1000z"/>
<path d="M6010 20335 l0 -355 355 0 355 0 0 355 0 355 -355 0 -355 0 0 -355z"/>
<path d="M7440 20335 l0 -355 355 0 355 0 0 355 0 355 -355 0 -355 0 0 -355z"/>
<path d="M8860 20335 l0 -355 355 0 355 0 0 355 0 355 -355 0 -355 0 0 -355z"/>
<path d="M9780 7515 c0 -1010 3 -1266 13 -1262 19 7 2251 1248 2259 1256 6 5
-2210 1247 -2264 1269 -4 2 -8 -566 -8 -1263z"/>
</g>
</svg>
