<?xml version="1.0" standalone="no"?>
<!DOCTYPE svg PUBLIC "-//W3C//DTD SVG 20010904//EN"
 "http://www.w3.org/TR/2001/REC-SVG-20010904/DTD/svg10.dtd">
<svg version="1.0" xmlns="http://www.w3.org/2000/svg"
 width="512.000000pt" height="512.000000pt" viewBox="0 0 512.000000 512.000000"
 preserveAspectRatio="xMidYMid meet">

<g transform="translate(0.000000,512.000000) scale(0.100000,-0.100000)"
fill="#000000" stroke="none">
<path d="M2130 5104 c-78 -34 -118 -93 -127 -187 l-6 -63 -140 -26 c-145 -28
-172 -40 -211 -92 -16 -21 -21 -41 -20 -89 1 -34 3 -71 5 -81 3 -15 -17 -31
-92 -75 -182 -107 -327 -224 -456 -370 -260 -294 -423 -661 -465 -1046 l-14
-120 -59 -6 c-33 -3 -76 -13 -96 -21 -49 -21 -107 -81 -133 -137 -20 -44 -21
-60 -21 -436 0 -372 1 -392 20 -423 34 -56 70 -70 286 -112 111 -22 204 -41
206 -44 3 -2 19 -47 37 -99 18 -51 54 -138 80 -192 25 -54 46 -101 46 -106 0
-5 -54 -90 -120 -189 -127 -192 -136 -215 -110 -287 12 -32 401 -427 442 -449
36 -19 102 -18 140 2 18 9 103 64 190 122 l158 105 107 -51 c60 -28 150 -65
201 -83 72 -24 93 -36 97 -53 3 -11 20 -101 40 -200 40 -209 54 -242 115 -273
43 -22 53 -23 330 -23 277 0 287 1 330 23 58 29 76 62 102 191 l21 107 -20 27
c-31 41 -67 50 -101 26 -28 -22 -43 -59 -62 -157 l-11 -57 -260 0 c-142 0
-259 3 -259 6 0 27 -84 426 -94 450 -13 29 -25 35 -148 75 -75 24 -187 70
-258 107 -108 55 -129 63 -152 54 -14 -5 -107 -64 -207 -131 -99 -66 -184
-121 -188 -121 -5 0 -89 81 -187 179 l-180 180 132 198 c73 109 132 206 132
215 0 8 -29 74 -64 144 -36 71 -83 187 -106 257 -51 154 -35 143 -270 187 -91
17 -186 36 -212 42 l-48 10 0 89 0 89 395 0 395 0 0 -29 c0 -48 30 -202 55
-286 33 -107 132 -303 196 -390 202 -270 513 -463 839 -521 123 -22 335 -22
456 -1 389 69 723 304 925 649 84 143 151 348 165 502 l7 76 393 0 394 0 0
-90 c0 -85 -1 -90 -22 -95 -13 -2 -108 -21 -213 -41 -104 -19 -202 -40 -216
-45 -32 -13 -39 -25 -84 -164 -19 -60 -65 -170 -101 -243 -48 -97 -63 -138
-58 -155 4 -12 62 -104 130 -204 68 -100 124 -185 124 -190 0 -11 -353 -363
-363 -363 -5 0 -90 56 -190 124 -100 68 -192 126 -204 130 -16 5 -60 -12 -165
-63 -79 -38 -190 -84 -248 -102 -122 -37 -165 -70 -154 -117 11 -44 33 -62 78
-62 54 0 251 67 365 124 50 25 95 46 101 46 6 0 80 -47 163 -104 84 -57 166
-111 184 -120 41 -21 105 -21 146 0 42 22 381 357 418 413 34 52 38 114 13
164 -9 18 -63 100 -120 184 -57 83 -104 156 -104 162 0 5 20 50 44 98 24 48
60 135 80 193 20 57 38 105 40 107 1 1 93 20 205 42 111 22 216 48 234 58 17
10 40 34 52 53 19 34 20 51 20 425 0 376 -1 392 -21 436 -24 52 -79 111 -126
135 -17 9 -60 19 -97 22 l-66 7 -7 85 c-17 186 -80 440 -118 475 -23 21 -74
23 -97 4 -31 -27 -34 -58 -12 -137 12 -42 23 -82 26 -89 4 -10 -23 -13 -130
-13 -146 0 -176 -7 -221 -48 -44 -42 -56 -81 -56 -187 l0 -95 -462 2 -463 3
-5 105 c-6 125 -23 162 -89 197 -43 23 -49 23 -358 23 -341 0 -354 -2 -405
-56 -39 -42 -48 -75 -48 -180 l0 -94 -422 2 -423 3 -5 105 c-4 85 -9 112 -27
140 -40 64 -70 74 -234 80 l-146 5 27 90 c109 356 338 675 640 891 96 69 198
129 206 121 3 -3 19 -49 35 -103 32 -107 58 -144 99 -144 41 0 80 35 80 72 0
17 -27 119 -60 226 -33 108 -59 200 -57 206 3 9 156 44 200 45 16 1 17 -24 17
-395 0 -404 2 -422 39 -451 26 -20 70 -15 96 12 l25 24 0 529 c0 397 3 531 12
540 17 17 759 17 776 0 9 -9 12 -141 12 -531 0 -375 3 -524 12 -540 32 -61
103 -64 133 -6 12 23 15 96 15 424 0 299 3 395 12 395 41 0 201 -36 205 -46 2
-6 -21 -94 -51 -195 -31 -100 -56 -196 -56 -214 0 -67 82 -101 127 -52 12 12
33 64 49 115 15 50 30 92 34 92 12 0 172 -99 228 -141 164 -124 311 -283 427
-461 65 -100 100 -118 150 -75 53 45 34 96 -104 282 -153 206 -363 387 -613
529 -44 24 -47 28 -38 52 18 46 12 118 -12 154 -39 57 -66 69 -216 98 l-142
27 0 51 c0 80 -41 151 -109 186 l-53 28 -397 0 c-331 -1 -402 -3 -431 -16z
m2489 -2330 c43 -31 51 -70 51 -254 l0 -170 -1322 0 c-1024 -1 -1327 -3 -1339
-13 -43 -33 -44 -94 -1 -127 24 -20 43 -20 870 -20 l845 0 -7 -64 c-26 -253
-156 -509 -356 -700 -191 -182 -430 -291 -691 -315 -407 -37 -792 134 -1041
463 -112 148 -202 373 -223 554 l-7 62 132 0 c170 0 200 14 200 90 0 19 -9 36
-26 49 -26 21 -35 21 -640 21 l-614 0 0 170 c0 184 8 223 51 254 22 15 193 16
2059 16 1866 0 2037 -1 2059 -16z"/>
</g>
</svg>
